# xmcd CD database file
#
# Track frame offsets:
#	150
#	20138
#	54018
#	75865
#	91614
#	126931
#	147749
#	167775
#	205585
#	232475
#	270377
#	282986
#	307312
#
# Disc length: 4702 seconds
#
# Revision: 0
# Processed by: cddbd v1.5.2PL0 Copyright (c) Steve Scherf et al.
# Submitted via: CDex 1.51
#
DISCID=b6125c0d
DTITLE=Multiple Blues - 2008 Blues Sampler
DYEAR=2008
DGENRE=Blues
TTITLE0=Iceman - Albert Collins -Live at Montreux 92
TTITLE1=Frosty - Albert Collins -Live at Montreux 92
TTITLE2=Going Down - John Mayall - In the Palace of the King
TTITLE3=Palace Of The King - John Mayall - In the Palace of the King
TTITLE4=Laundromat - Rory Gallagher - Live at Montreux
TTITLE5=Too Much Alcohol - Rory Gallagher - Live at Montreux
TTITLE6=The Hunter - Paul Rodgers - Live In Glasgow
TTITLE7=Dear Mr Fantasy - Steve Winwood - Dear Mr Fantasy
TTITLE8=Living On The Outside - Joe Walsh, Bill Wyman, Jon Lord  - Dear Mr Fantasy
TTITLE9=Hard to Handle - Black Crowes - Freak and Roll...Into The Fog
TTITLE10=If The Devil Made Whisky -  Gary Moore - Close as You Get
TTITLE11=Yer Blues - Jeff Healey - Live at Montreux 99
TTITLE12=Roadhouse Blues - Jeff Healey - Live at Montreux 99
EXTD=YEAR: 2008
EXTT0=
EXTT1=
EXTT2=
EXTT3=
EXTT4=
EXTT5=
EXTT6=
EXTT7=
EXTT8=
EXTT9=
EXTT10=
EXTT11=
EXTT12=
PLAYORDER=
